<svg id="bag-icon" data-name="bag-icon" xmlns="http://www.w3.org/2000/svg" viewBox="0 0 17 20" width="17" height="20" aria-hidden="true"><defs><style>#bag-icon .cls-1{fill:#f59493;}</style></defs>
    <path class="cls-1"
          d="M16.32,4.67a.59.59,0,0,0-.59-.57H12.52A4.09,4.09,0,0,0,8.45.24H8.24A4.07,4.07,0,0,0,4.17,4.1H1.27a.59.59,0,0,0-.59.57L0,19.14a.55.55,0,0,0,.16.43.59.59,0,0,0,.43.19H16.37a.59.59,0,0,0,.43-.19.56.56,0,0,0,.16-.43ZM1.25,18.57,1.83,5.28H4.16V7.22a.59.59,0,0,0,0,1.18H5.29a.59.59,0,0,0,0-1.18V5.28h6V7.22A.59.59,0,0,0,11.4,8.4h1.07a.59.59,0,0,0,.06-1.18V5.28h2.64l.58,13.29ZM5.35,4.1A2.89,2.89,0,0,1,8.24,1.43h.21A2.89,2.89,0,0,1,11.33,4.1Z"/></svg>